<svg  viewBox="0 0 24 24"  xmlns="http://www.w3.org/2000/svg">
    <symbol id="icon-arrow_up">
        <path d="M14.6682 13.3197C14.3591 13.3196 14.0628 13.2028 13.8443 12.9948L10.0071 9.34327L6.16992 12.9948C6.06243 13.1007 5.93385 13.1852 5.79168 13.2433C5.64952 13.3014 5.49661 13.332 5.34189 13.3333C5.18717 13.3346 5.03373 13.3065 4.89052 13.2508C4.74731 13.195 4.61721 13.1127 4.5078 13.0086C4.39839 12.9044 4.31187 12.7806 4.25328 12.6443C4.19469 12.5081 4.1652 12.3621 4.16655 12.2148C4.16789 12.0676 4.20004 11.9221 4.26111 11.7868C4.32218 11.6515 4.41095 11.5291 4.52224 11.4269L9.18328 6.99133C9.4018 6.78345 9.69814 6.66667 10.0071 6.66667C10.3161 6.66667 10.6124 6.78345 10.831 6.99133L15.492 11.4269C15.6549 11.5819 15.7659 11.7795 15.8108 11.9946C15.8557 12.2096 15.8327 12.4326 15.7445 12.6351C15.6563 12.8377 15.507 13.0109 15.3154 13.1328C15.1238 13.2546 14.8986 13.3197 14.6682 13.3197Z" />
    </symbol>
</svg>
