<svg  viewBox="0 0 24 24"  xmlns="http://www.w3.org/2000/svg">
    <symbol id="icon-arrow_down">
        <path d="M10.0142 13.3333C9.70478 13.3333 9.40808 13.2164 9.18934 13.0084L4.52267 8.57308C4.41125 8.47079 4.32237 8.34844 4.26122 8.21316C4.20008 8.07787 4.16789 7.93237 4.16655 7.78514C4.1652 7.63791 4.19472 7.4919 4.25338 7.35562C4.31204 7.21935 4.39867 7.09555 4.50821 6.99144C4.61775 6.88732 4.74801 6.80499 4.89139 6.74924C5.03477 6.69348 5.1884 6.66543 5.34331 6.66671C5.49822 6.66799 5.65131 6.69857 5.79364 6.75669C5.93598 6.8148 6.06472 6.89928 6.17234 7.00518L10.0142 10.6566L13.856 7.00518C14.076 6.8032 14.3707 6.69143 14.6766 6.69396C14.9825 6.69648 15.2752 6.8131 15.4915 7.01869C15.7078 7.22428 15.8305 7.50239 15.8331 7.79312C15.8358 8.08386 15.7182 8.36395 15.5057 8.57308L10.839 13.0084C10.6203 13.2164 10.3236 13.3333 10.0142 13.3333V13.3333Z" />
    </symbol>   
</svg>
