<svg  viewBox="0 0 24 24"  xmlns="http://www.w3.org/2000/svg">
    <symbol id="icon-bag">
        <path d="M20 7.923C19.9806 7.67135 19.8667 7.43635 19.6812 7.26516C19.4958 7.09397 19.2524 6.99925 19 7H16V6C16 4.93913 15.5786 3.92172 14.8284 3.17157C14.0783 2.42143 13.0609 2 12 2C10.9392 2 9.92173 2.42143 9.17159 3.17157C8.42144 3.92172 8.00002 4.93913 8.00002 6V7H5.00002C4.74762 6.99925 4.50427 7.09397 4.3188 7.26516C4.13333 7.43635 4.01945 7.67135 4.00002 7.923L3.08602 19.846C3.06479 20.1208 3.1006 20.397 3.19118 20.6573C3.28177 20.9176 3.42517 21.1564 3.61241 21.3587C3.79964 21.5609 4.02666 21.7223 4.27921 21.8327C4.53176 21.943 4.8044 22 5.08002 22H18.92C19.1955 22 19.4681 21.943 19.7206 21.8327C19.9731 21.7224 20.2 21.5611 20.3872 21.359C20.5745 21.1568 20.7179 20.9182 20.8085 20.658C20.8992 20.3978 20.9351 20.1217 20.914 19.847L20 7.923ZM10 11C10 11.2652 9.89466 11.5196 9.70712 11.7071C9.51959 11.8946 9.26523 12 9.00002 12C8.7348 12 8.48045 11.8946 8.29291 11.7071C8.10537 11.5196 8.00002 11.2652 8.00002 11V9H10V11ZM10 6C10 5.46957 10.2107 4.96086 10.5858 4.58579C10.9609 4.21071 11.4696 4 12 4C12.5304 4 13.0392 4.21071 13.4142 4.58579C13.7893 4.96086 14 5.46957 14 6V7H10V6ZM16 11C16 11.2652 15.8947 11.5196 15.7071 11.7071C15.5196 11.8946 15.2652 12 15 12C14.7348 12 14.4804 11.8946 14.2929 11.7071C14.1054 11.5196 14 11.2652 14 11V9H16V11Z" />
    </symbol>
</svg>
