<svg  viewBox="0 0 24 24"  xmlns="http://www.w3.org/2000/svg">
    <symbol id="icon-rocket">
        <path d="M11.8095 18.8859L11.9967 20.1924C12.0512 20.5789 12.2125 20.9427 12.4624 21.2428C12.7123 21.5429 13.0411 21.7675 13.4117 21.8914C13.7823 22.0153 14.1802 22.0336 14.5607 21.9442C14.9411 21.8549 15.2892 21.6614 15.5657 21.3855L17.796 19.1579C17.9716 18.9829 18.0796 18.7515 18.1009 18.5046L18.3985 15.0052C16.2933 16.3442 13.8169 17.7694 11.8095 18.8859Z"/>
        <path d="M21.7256 3.54786C21.673 3.23493 21.5239 2.94618 21.2993 2.7218C21.0746 2.49742 20.7855 2.34856 20.4722 2.29595C19.4877 2.12254 18.4906 2.03085 17.491 2.02183C16.0004 1.89379 14.5163 2.33225 13.3353 3.24959C11.4656 5.11695 7.5055 12.2031 6.27309 14.4464C6.16443 14.645 6.12342 14.8735 6.15624 15.0975C6.18905 15.3214 6.29392 15.5286 6.455 15.6878L8.3194 17.5468C8.41642 17.6456 8.53205 17.7244 8.65963 17.7784C8.78722 17.8325 8.92425 17.8609 9.06285 17.8618C9.23755 17.8622 9.40946 17.8181 9.56234 17.7337C11.8085 16.5039 18.9033 12.5486 20.7729 10.6812C22.4197 9.02917 22.0369 5.35221 21.7256 3.54786ZM17.796 9.19091C17.5018 9.48458 17.1271 9.68456 16.7191 9.76554C16.3112 9.84652 15.8884 9.80487 15.5041 9.64586C15.1199 9.48685 14.7915 9.21762 14.5604 8.87221C14.3294 8.5268 14.2061 8.12072 14.2061 7.70531C14.2061 7.28991 14.3294 6.88383 14.5604 6.53842C14.7915 6.19301 15.1199 5.92378 15.5041 5.76477C15.8884 5.60576 16.3112 5.56411 16.7191 5.64509C17.1271 5.72607 17.5018 5.92604 17.796 6.21972C17.9914 6.41478 18.1464 6.64638 18.2521 6.90128C18.3578 7.15619 18.4123 7.4294 18.4123 7.70531C18.4123 7.98123 18.3578 8.25444 18.2521 8.50935C18.1464 8.76425 17.9914 8.99584 17.796 9.19091Z" />
        <path d="M9.00502 5.61898L5.50231 5.9162C5.25565 5.93744 5.0244 6.04493 4.84929 6.21972L2.61685 8.44732C2.34041 8.7231 2.14636 9.07034 2.05644 9.4501C1.96653 9.82987 1.98432 10.2271 2.10781 10.5974C2.2313 10.9676 2.45561 11.2962 2.75559 11.5462C3.05557 11.7962 3.41935 11.9579 3.80615 12.013L5.11428 12.1999C6.23313 10.195 7.65904 7.7216 9.00502 5.61898Z" />
    </symbol>
</svg>
