<svg  viewBox="0 0 24 24"  xmlns="http://www.w3.org/2000/svg">
    <symbol id="icon-settings">
        <path d="M18.9089 10.5L18.7811 10.1913L18.0741 8.48433L17.9463 8.17599L18.1821 7.93978L18.7171 7.40378L18.7174 7.4035C18.8111 7.30974 18.8638 7.18258 18.8638 7.05C18.8638 6.91744 18.8111 6.79031 18.7174 6.69655L18.9089 10.5ZM18.9089 10.5H19.243M18.9089 10.5H19.243M6.6965 5.28261L6.69655 5.28255C6.79031 5.18885 6.91744 5.13621 7.05 5.13621C7.18258 5.13621 7.30974 5.18887 7.4035 5.28261L7.40378 5.28288L7.93978 5.81788L8.17599 6.05365L8.48433 5.92595L10.1913 5.21895L10.5 5.0911V4.757V4C10.5 3.86739 10.5527 3.74021 10.6464 3.64645C10.7402 3.55268 10.8674 3.5 11 3.5H13C13.1326 3.5 13.2598 3.55268 13.3536 3.64645C13.4473 3.74021 13.5 3.86739 13.5 4V4.757V5.0911L13.8087 5.21895L15.5157 5.92595L15.824 6.05365L16.0602 5.81788L16.5962 5.28288L16.5965 5.28261C16.6903 5.18887 16.8174 5.13621 16.95 5.13621C17.0826 5.13621 17.2097 5.18885 17.3034 5.28255C17.3035 5.28257 17.3035 5.28259 17.3035 5.28261L18.7174 6.6965L6.343 4.929L6.6965 5.28261ZM6.6965 5.28261L5.28261 6.6965M6.6965 5.28261L5.28261 6.6965M5.28261 6.6965C5.28259 6.69652 5.28257 6.69654 5.28255 6.69655M5.28261 6.6965L5.28255 6.69655M19.243 10.5H20C20.1326 10.5 20.2598 10.5527 20.3536 10.6464C20.4473 10.7402 20.5 10.8674 20.5 11V13C20.5 13.1326 20.4473 13.2598 20.3536 13.3536C20.2598 13.4473 20.1326 13.5 20 13.5H19.243H18.9089L18.7811 13.8087L18.0741 15.5157L17.9463 15.824L18.1821 16.0602L18.7171 16.5962L18.7174 16.5965C18.8111 16.6903 18.8638 16.8174 18.8638 16.95C18.8638 17.0826 18.8111 17.2097 18.7174 17.3034C18.7174 17.3035 18.7174 17.3035 18.7174 17.3035L17.3035 18.7174L19.243 10.5ZM6.05491 8.1758L5.92685 8.48456L5.21885 10.1916L5.09092 10.5H4.757H4C3.86739 10.5 3.74021 10.5527 3.64645 10.6464C3.55268 10.7402 3.5 10.8674 3.5 11V13C3.5 13.1326 3.55268 13.2598 3.64645 13.3536C3.74021 13.4473 3.86739 13.5 4 13.5H4.757H5.09105L5.21892 13.8086C5.33458 14.0877 5.41401 14.2793 5.48179 14.4427C5.61369 14.7607 5.70144 14.9722 5.92612 15.5161L6.05342 15.8242L5.81788 16.0602L5.28288 16.5962L5.28261 16.5965C5.18887 16.6903 5.13621 16.8174 5.13621 16.95C5.13621 17.0826 5.18885 17.2097 5.28255 17.3034L5.28261 17.3035M6.05491 8.1758L5.28261 17.3035M6.05491 8.1758L5.81855 7.93945M6.05491 8.1758L5.81855 7.93945M5.28261 17.3035L6.6965 18.7174M5.28261 17.3035L6.6965 18.7174M6.6965 18.7174C6.69652 18.7174 6.69654 18.7174 6.69655 18.7174C6.79031 18.8111 6.91744 18.8638 7.05 18.8638C7.18258 18.8638 7.30974 18.8111 7.4035 18.7174L7.40378 18.7171L7.93978 18.1821L8.17599 17.9463L8.48433 18.0741L10.1913 18.7811L10.5 18.9089V19.243V20C10.5 20.1326 10.5527 20.2598 10.6464 20.3536C10.7402 20.4473 10.8674 20.5 11 20.5H13C13.1326 20.5 13.2598 20.4473 13.3536 20.3536C13.4473 20.2598 13.5 20.1326 13.5 20V19.243V18.9091L13.8084 18.7811L15.5154 18.0731L15.8242 17.9451L16.0606 18.1814L16.5965 18.7174C16.5965 18.7174 16.5965 18.7174 16.5966 18.7174C16.6903 18.8111 16.8174 18.8638 16.95 18.8638C17.0826 18.8638 17.2097 18.8111 17.3034 18.7174L6.6965 18.7174ZM5.81855 7.93945L5.28261 7.4035C5.28259 7.40348 5.28257 7.40346 5.28255 7.40345C5.18885 7.30969 5.13621 7.18256 5.13621 7.05C5.13621 6.91744 5.18885 6.79031 5.28255 6.69655M5.81855 7.93945L5.28255 6.69655M9.49993 15.7416C10.24 16.2361 11.11 16.5 12 16.5C13.1935 16.5 14.3381 16.0259 15.182 15.182C16.0259 14.3381 16.5 13.1935 16.5 12C16.5 11.11 16.2361 10.24 15.7416 9.49993C15.2471 8.75991 14.5443 8.18314 13.7221 7.84254C12.8998 7.50195 11.995 7.41283 11.1221 7.58647C10.2492 7.7601 9.44736 8.18868 8.81802 8.81802C8.18868 9.44736 7.7601 10.2492 7.58647 11.1221C7.41283 11.995 7.50195 12.8998 7.84254 13.7221C8.18314 14.5443 8.75991 15.2471 9.49993 15.7416Z" />
    </symbol>
</svg>
