<svg  viewBox="0 0 24 24"  xmlns="http://www.w3.org/2000/svg">
    <symbol id="icon-truck">
        <path d="M21.9 10.58C21.9 10.571 21.9 10.561 21.894 10.553L19.894 6.553C19.811 6.38692 19.6834 6.24722 19.5255 6.14955C19.3676 6.05188 19.1857 6.0001 19 6H15C15 5.46957 14.7893 4.96086 14.4142 4.58579C14.0391 4.21071 13.5304 4 13 4H4C3.46957 4 2.96086 4.21071 2.58579 4.58579C2.21071 4.96086 2 5.46957 2 6V15C2 15.2652 2.10536 15.5196 2.29289 15.7071C2.48043 15.8946 2.73478 16 3 16H3.3C3.26981 16.1651 3.25275 16.3322 3.249 16.5C3.249 17.362 3.59141 18.1886 4.2009 18.7981C4.8104 19.4076 5.63705 19.75 6.499 19.75C7.36095 19.75 8.1876 19.4076 8.7971 18.7981C9.40659 18.1886 9.749 17.362 9.749 16.5C9.74591 16.3323 9.72952 16.1651 9.7 16H14.3C14.2698 16.1651 14.2528 16.3322 14.249 16.5C14.249 17.362 14.5914 18.1886 15.2009 18.7981C15.8104 19.4076 16.637 19.75 17.499 19.75C18.361 19.75 19.1876 19.4076 19.7971 18.7981C20.4066 18.1886 20.749 17.362 20.749 16.5C20.7459 16.3323 20.7295 16.1651 20.7 16H21C21.2652 16 21.5196 15.8946 21.7071 15.7071C21.8946 15.5196 22 15.2652 22 15V11C21.998 10.8543 21.9638 10.7109 21.9 10.58ZM18.382 8L19.382 10H15V8H18.382ZM6.5 17.75C6.25277 17.75 6.0111 17.6767 5.80554 17.5393C5.59998 17.402 5.43976 17.2068 5.34515 16.9784C5.25054 16.7499 5.22579 16.4986 5.27402 16.2561C5.32225 16.0137 5.4413 15.7909 5.61612 15.6161C5.79093 15.4413 6.01366 15.3222 6.25614 15.274C6.49861 15.2258 6.74995 15.2505 6.97835 15.3452C7.20676 15.4398 7.40199 15.6 7.53934 15.8055C7.67669 16.0111 7.75 16.2528 7.75 16.5C7.74947 16.8314 7.61761 17.149 7.3833 17.3833C7.14899 17.6176 6.83136 17.7495 6.5 17.75ZM17.5 17.75C17.2528 17.75 17.0111 17.6767 16.8055 17.5393C16.6 17.402 16.4398 17.2068 16.3451 16.9784C16.2505 16.7499 16.2258 16.4986 16.274 16.2561C16.3223 16.0137 16.4413 15.7909 16.6161 15.6161C16.7909 15.4413 17.0137 15.3222 17.2561 15.274C17.4986 15.2258 17.7499 15.2505 17.9784 15.3452C18.2068 15.4398 18.402 15.6 18.5393 15.8055C18.6767 16.0111 18.75 16.2528 18.75 16.5C18.7495 16.8314 18.6176 17.149 18.3833 17.3833C18.149 17.6176 17.8314 17.7495 17.5 17.75Z" />
    </symbol>
</svg>
